<svg width="720" height="720" viewBox="0 0 720 720" fill="none" xmlns="http://www.w3.org/2000/svg">
<path fill-rule="evenodd" clip-rule="evenodd" d="M141.115 438.626L141.116 438.625L141.115 438.626L141.115 438.626ZM104.669 440.371C108.742 441.257 113.115 441.699 117.786 441.699C126.28 441.699 133.761 440.422 140.229 437.868C140.516 438.121 140.811 438.373 141.115 438.626C134.152 445.588 127.19 452.55 120.861 460.148C119.595 461.413 118.961 461.413 118.328 460.148C112.64 454.105 107.751 447.662 104.669 440.371ZM158.255 424.397C162.866 427.236 167.281 430.401 171.5 433.566C174.032 435.464 174.032 436.097 171.5 437.996C163.902 443.694 157.573 450.656 153.142 459.519C139.847 486.105 146.812 517.755 170.232 539.91C183.525 552.57 198.717 559.533 215.807 564.598C218.34 565.23 218.972 566.495 217.707 569.028C213.389 577.182 209.436 585.702 205.57 594.033L205.569 594.034L205.569 594.034L205.567 594.04C204.333 596.699 203.108 599.339 201.882 601.943C200.617 605.74 200.617 607.64 204.415 608.905C210.409 610.904 216.406 613.691 222.09 616.333L222.096 616.336C223.611 617.04 225.104 617.734 226.57 618.4C229.102 619.033 229.735 619.033 229.733 617.77C233.214 610.489 236.537 603.052 239.86 595.614L239.861 595.613C243.184 588.176 246.507 580.739 249.988 573.46C250.071 573.21 250.143 572.972 250.211 572.746C250.664 571.249 250.953 570.295 253.153 570.295C259.795 570.77 266.44 570.177 273.085 569.584C275.302 569.386 277.52 569.188 279.737 569.029C282.902 568.397 284.17 569.029 284.802 572.194C289.235 587.384 295.565 601.944 305.692 614.604C327.847 641.192 365.195 649.419 394.945 632.962C412.67 622.834 422.798 607.009 429.128 588.019C429.763 586.12 429.128 585.487 427.863 584.854C424.063 582.322 420.265 579.789 416.468 576.624C414.258 574.729 412.205 572.834 410.152 570.939L410.151 570.938L410.151 570.938C408.089 569.035 406.027 567.132 403.808 565.229C401.91 572.824 400.01 580.422 396.213 587.384C382.92 613.972 353.168 613.972 336.078 599.412C324.685 589.917 319.62 577.257 315.823 563.964C314.558 560.799 315.823 560.167 318.355 559.534C347.473 552.572 375.957 543.077 403.177 530.417C405.71 529.782 406.977 529.782 408.242 531.682C410.774 534.846 413.305 537.852 415.837 540.858L415.837 540.859L415.837 540.859C418.369 543.866 420.902 546.874 423.435 550.039C432.93 560.799 443.057 571.562 456.35 579.157C469.01 586.754 482.937 588.652 496.862 581.689C506.99 576.624 512.687 567.762 516.485 557.634C517.75 554.469 519.65 553.837 522.815 553.837C530.41 553.837 538.007 553.202 545.602 551.937C563.96 548.772 579.785 540.542 591.812 526.617C607.002 509.526 613.967 488.636 612.067 465.216C611.64 457.088 610.056 449.249 607.51 441.699C600.773 441.684 594.401 440.742 588.392 438.872C582.334 436.92 576.983 433.992 572.338 430.088C567.761 426.117 564.16 421.102 561.535 415.044C558.91 408.919 557.597 401.683 557.597 393.336H582.551C585.965 386.908 588.84 380.436 591.177 373.428C591.381 372.815 591.602 372.301 591.842 371.875C590.204 371.099 588.583 370.31 586.978 369.508C581.863 366.883 577.252 363.854 573.146 360.421C569.04 356.988 565.775 352.95 563.352 348.305C560.996 343.593 559.818 338.074 559.818 331.747C559.818 326.943 560.487 322.483 561.824 318.368C559 316.616 556.186 314.955 553.196 313.294C550.664 312.029 549.399 310.129 550.031 306.964C551.296 296.834 551.931 286.707 550.031 276.579C546.234 255.692 535.471 240.499 515.216 234.169C491.163 226.572 465.843 236.699 460.145 267.084C458.878 271.514 459.513 274.679 463.943 277.844C469.634 281.828 474.941 286.323 480.094 291.1C482.529 290.802 485.04 290.653 487.627 290.653C495.503 290.653 502.671 292.033 509.133 294.793C515.595 297.485 521.182 301.524 525.894 306.909C530.605 312.226 534.207 318.89 536.697 326.9C538.396 332.175 539.531 338.045 540.101 344.508C540.134 344.429 540.166 344.353 540.197 344.277C540.598 343.301 540.875 342.629 542.439 343.67C549.401 347.47 555.731 351.268 562.061 355.065C562.694 355.698 562.694 356.332 562.694 357.598C561.849 359.288 561.004 361.542 560.159 363.795L560.158 363.796C559.738 364.918 559.317 366.041 558.896 367.093L558.896 367.093L558.896 367.094C557.331 371.164 556.539 373.221 555.221 373.647C553.873 374.084 551.975 372.818 548.136 370.258C546.233 368.99 544.331 367.563 542.43 366.137L542.429 366.136L542.429 366.136C541.797 365.662 541.165 365.189 540.534 364.721V379.302C540.534 389.668 539.255 398.755 536.697 406.563C534.207 414.304 530.639 420.799 525.995 426.049C523.627 428.73 520.999 431.068 518.11 433.065C518.185 433.067 518.259 433.07 518.334 433.073H518.335C522.27 433.212 526.024 433.344 529.778 432.927C538.637 432.295 547.5 431.03 556.363 429.13C557.63 429.13 559.528 429.13 559.528 427.867C560.793 424.702 562.06 425.967 563.325 427.867C575.35 442.427 581.68 458.884 580.415 477.874C579.147 498.129 562.69 516.486 543.068 520.284C537.37 521.551 531.04 522.184 525.342 522.184C522.177 522.184 520.912 521.551 520.912 518.386C520.912 512.689 520.278 506.994 519.012 501.929C518.38 498.764 519.645 498.764 522.177 498.764H522.178C531.04 498.764 539.268 498.764 548.13 497.499L548.287 497.486C555.736 496.863 556.364 496.811 556.992 489.269C558.26 477.874 558.892 466.481 555.727 455.086C555.095 452.554 554.462 451.921 552.562 452.554C549.397 453.186 545.6 453.819 542.435 453.819C540.537 453.819 540.537 455.086 541.17 456.351C541.488 456.986 541.806 457.782 542.124 458.576C542.44 459.364 542.755 460.151 543.07 460.781C544.364 464.016 544.996 465.598 544.461 466.371C543.949 467.111 542.367 467.111 539.272 467.111C528.512 467.744 517.117 466.479 506.357 464.579C505.595 464.427 504.833 464.311 504.081 464.197C501.705 463.836 499.417 463.489 497.494 462.047C497.053 461.605 496.304 461.78 495.676 461.925C495.403 461.989 495.154 462.047 494.962 462.047C491.193 463.365 487.425 464.74 483.64 466.121C474.709 469.38 465.685 472.672 456.35 475.339C462.68 481.669 469.642 486.732 477.872 488.625C484.834 490.525 487.999 494.323 488.632 501.285C488.632 503.818 489.195 506.349 489.757 508.879C490.039 510.146 490.321 511.413 490.532 512.68C491.164 515.213 490.532 515.845 487.999 515.213C468.377 510.148 451.919 500.653 439.259 484.828C436.727 481.663 434.194 481.03 430.397 481.663C410.774 486.095 390.519 489.893 369.629 490.525C349.373 491.158 329.116 490.525 308.861 487.993C306.328 487.993 305.063 486.728 306.328 484.195C308.228 479.765 310.128 475.333 311.393 470.903C312.026 467.105 313.926 466.473 317.723 467.105C332.283 469.005 346.208 470.27 360.768 469.638C384.821 469.005 407.611 465.208 431.031 459.51C449.918 455.013 468.166 448.919 486.229 441.681C478.976 441.514 472.307 440.208 466.222 437.762C459.76 435.137 454.174 431.232 449.462 426.049C444.817 420.799 441.216 414.304 438.658 406.563C436.1 398.755 434.822 389.668 434.822 379.302V374.382C432.452 381.279 429.916 388.139 427.228 394.95C425.961 397.48 425.961 400.012 427.861 402.545C430.175 406.017 432.255 409.724 434.386 413.523C435.751 415.958 437.138 418.43 438.621 420.902C439.888 422.8 439.256 424.067 437.356 424.7C432.276 425.83 427.194 427.462 422.112 429.15L425.432 439.68H394.031L386.053 409.39H345.417L338.797 434.686C340.063 434.563 341.277 434.418 342.409 434.191C353.804 432.926 363.932 427.861 373.427 421.531C376.592 419.632 377.224 420.264 379.124 422.797C381.656 426.594 384.187 430.392 386.087 435.457C369.981 437.678 354.366 437.951 338.381 436.275L337.49 439.68H306.291L319.928 396.04C307.216 413.254 296.3 431.458 286.704 450.65C282.273 459.51 278.476 469.003 274.68 478.496L274.677 478.502C273.412 481.033 272.779 481.033 270.247 479.768C267.58 478.101 264.914 476.435 262.248 474.769C259.85 473.27 257.453 471.771 255.054 470.273C252.524 469.005 252.524 467.74 253.789 464.575C258.002 456.15 262.405 447.851 266.999 439.68H260.654V376.677H254.72C256.07 381.299 257.67 385.908 259.486 390.518C260.119 392.418 260.119 394.315 258.854 396.215C256.125 400.114 253.636 404.252 251.091 408.483L251.091 408.483L251.09 408.484C249.503 411.122 247.895 413.796 246.194 416.47L246.193 416.469C243.028 410.139 239.863 403.81 237.966 397.48C235.661 390.566 233.608 383.652 232.081 376.677H216.632V399.226C218.887 400.853 221.142 402.488 223.398 404.123L223.398 404.124L223.403 404.127C229.733 408.716 236.063 413.306 242.393 417.737C244.291 419.002 244.291 420.268 243.026 422.167C239.228 427.865 235.431 433.562 232.266 439.893C231.074 442.278 230.444 441.853 228.787 440.739C228.685 440.67 228.579 440.599 228.468 440.525C224.535 436.934 220.603 433.389 216.632 429.903V439.68H187.049V406.11C185.677 405.124 184.292 404.146 182.893 403.178C178.125 399.915 173.357 396.752 168.391 394.044C167.695 403.639 165.534 411.851 161.908 418.679C160.816 420.718 159.598 422.624 158.255 424.397ZM161.586 390.711C156.018 388.315 150.12 386.627 143.648 386.088C124.898 383.944 108.415 395.403 103.024 412.022C104.202 413.321 105.555 414.362 107.083 415.145C109.91 416.559 113.478 417.265 117.786 417.265C122.767 417.265 126.772 416.525 129.801 415.044C132.897 413.563 135.186 410.905 136.667 407.068C138.147 403.231 138.989 397.779 139.191 390.711H161.586ZM123.769 315.364C126.07 327.309 131.413 338.832 139.845 348.74C152.505 363.93 168.33 372.16 186.056 378.49C186.387 378.6 186.718 378.711 187.049 378.82V343.486C186.741 343.371 186.433 343.256 186.123 343.139L186.123 343.139L186.123 343.139C185.472 342.895 184.818 342.649 184.159 342.409C177.698 340.255 172.153 336.728 167.524 331.827C168.153 335.174 168.603 338.714 168.875 342.449H139.292C139.157 335.449 138.383 329.963 136.97 325.991C135.623 321.953 133.469 319.126 130.508 317.51C128.692 316.478 126.445 315.763 123.769 315.364ZM155.582 305.122C154.292 287.709 163.605 269.155 187.956 262.019C194.286 260.119 201.884 258.854 208.846 258.854C210.111 258.854 212.011 259.486 212.011 261.386C212.644 263.286 213.909 263.919 215.809 263.919C264.952 265.594 307.689 283.034 346.631 310.59L352.231 292.672H359.298H371.717H376.958C374.514 290.895 372.07 289.117 369.627 287.34C367.094 285.442 367.094 284.809 369.627 282.91C370.579 282.148 371.588 281.386 372.62 280.607C375.019 278.796 377.541 276.893 379.754 274.68C381.019 273.414 382.287 273.414 383.552 274.68C390.514 280.377 397.477 286.075 403.174 293.037C403.807 294.302 404.439 295.569 403.807 296.835C401.277 306.33 398.744 315.825 396.212 324.687C395.771 326.452 394.716 327.294 393.474 328.285C392.933 328.717 392.358 329.176 391.782 329.752C391.526 330.008 391.271 330.259 391.015 330.507L401.803 364.726C405.035 368.806 408.219 372.981 411.404 377.227C412.062 375.253 412.644 373.431 413.203 371.682L413.205 371.676L413.207 371.67C414.259 368.376 415.229 365.34 416.469 362.034C425.964 332.916 434.191 303.167 439.889 272.781C443.054 256.956 445.586 241.131 446.851 224.674C447.484 221.509 448.749 220.242 451.281 218.976C461.412 215.177 470.907 212.012 481.667 210.746C494.959 208.849 508.251 208.849 520.911 213.279C548.132 222.142 563.957 241.132 571.551 267.717C574.926 278.214 576.08 288.933 575.802 299.61C579.274 297.099 583.168 295.089 587.483 293.581C593.101 291.642 599.349 290.666 606.229 290.653C605.657 274.338 602.429 258.675 595.607 243.666C575.351 199.988 541.801 177.833 493.694 177.201C479.137 176.568 465.209 180.366 451.284 184.163C448.752 184.796 448.119 184.796 448.119 182.263C447.486 174.033 446.221 165.803 444.322 158.208C432.927 109.468 374.057 88.5782 334.812 119.596C321.52 129.723 312.657 143.016 306.327 158.208C305.062 162.006 303.162 162.64 299.997 160.741C298.875 160.273 297.766 159.805 296.667 159.341L296.667 159.341L296.666 159.341C290.329 156.667 284.315 154.13 277.842 152.511C277.427 152.418 277.009 152.323 276.588 152.226C271.226 151 265.4 149.668 260.117 153.776C253.155 159.471 249.355 167.701 248.09 177.196C258.217 174.031 267.712 171.498 277.207 170.233C294.932 167.701 312.657 167.701 329.747 170.866C332.28 171.498 333.547 170.866 334.812 168.333C338.61 159.471 344.307 151.876 351.902 146.178C374.057 129.088 406.974 136.051 414.569 167.068C415.409 170.147 415.878 173.474 416.358 176.885L416.358 176.886C416.964 181.188 417.589 185.623 419.001 189.862C419.634 194.927 417.734 197.457 413.304 199.357C381.021 215.183 351.271 234.173 324.051 257.593C322.786 258.858 321.521 258.858 319.621 258.226C307.593 252.528 295.566 246.831 282.906 243.033C275.966 240.865 269.027 238.993 261.68 237.011C258.304 236.101 254.843 235.167 251.256 234.171C266.448 225.941 282.273 223.408 298.731 222.776C298.415 223.093 298.256 223.409 298.098 223.726C297.94 224.042 297.782 224.359 297.466 224.676C294.933 227.206 296.198 227.841 298.731 229.106C300.629 230.056 302.687 231.163 304.744 232.27C306.802 233.378 308.859 234.486 310.758 235.436C312.656 236.068 313.923 236.068 315.188 234.803C327.848 224.043 341.776 214.548 355.701 205.686L355.776 205.641C358.916 203.756 362.061 201.868 365.828 199.356C355.112 196.833 344.393 194.941 333.676 193.049L333.546 193.026C310.124 189.228 287.969 189.861 265.182 194.925C254.419 197.455 244.292 201.255 234.164 205.685C233.532 206.318 231.632 208.218 230.999 205.053C227.202 188.595 225.937 172.77 232.899 156.945C239.229 142.385 250.624 131.625 267.714 129.093C276.577 127.195 285.437 128.46 293.667 131.625C295.564 132.89 296.832 132.258 297.464 129.725C299.994 121.495 302.527 113.265 305.059 105.67C305.692 103.138 305.059 102.505 303.159 101.873C272.775 91.1102 245.555 96.1753 222.135 118.33C200.613 139.219 194.916 165.173 196.815 194.29C197.448 204.418 199.348 213.913 202.513 223.408C203.778 225.94 203.145 227.205 199.98 227.205C196.815 227.205 193.018 227.838 189.853 228.471C173.396 231.003 158.203 236.698 146.175 248.093C133.368 259.787 125.705 274.909 123.292 290.714C131.769 291.265 139.02 293.231 145.047 296.61C149.074 298.868 152.586 301.706 155.582 305.122ZM605.353 314.688C601.809 314.755 598.848 315.527 596.469 317.005C594.046 318.486 592.229 320.539 591.017 323.164C589.873 325.722 589.301 328.617 589.301 331.848C589.301 334.271 589.873 336.458 591.017 338.41C592.229 340.295 593.878 342.011 595.965 343.56C598.051 345.04 600.508 346.488 603.335 347.901C606.229 349.315 609.393 350.695 612.826 352.041C619.49 354.666 625.38 357.56 630.495 360.724C635.494 363.75 639.69 367.161 643.082 370.958V350.641C643.082 348.108 642.449 346.843 639.284 346.843C627.257 346.843 615.864 343.678 604.469 339.881C602.569 339.248 601.304 338.616 601.937 336.083C603.509 329.267 604.649 322.015 605.353 314.688ZM383.789 307.585C383.921 307.484 384.054 307.382 384.186 307.28C386.244 305.698 388.301 304.115 390.517 302.532L386.617 299.696C384.318 298.025 382.02 296.353 379.721 294.682L383.789 307.585ZM339.321 333.984C324.184 322.358 307.733 312.543 289.934 304.608V339.868C291.812 340.893 293.69 341.966 295.568 343.04C297.422 343.966 296.9 344.554 296.24 345.299C295.998 345.572 295.738 345.866 295.568 346.205L293.698 348.608L293.676 348.637C292.429 350.24 291.182 351.844 289.934 353.447V402.305C293.01 397.697 296.154 393.134 299.364 388.615C305.694 379.753 312.024 370.893 319.619 362.663C321.519 360.765 322.784 360.13 324.684 362.03C326.215 363.56 327.745 364.885 329.276 366.128L339.321 333.984ZM260.654 293.547C243.196 288.013 224.967 284.289 206.314 284.807C196.186 285.44 187.324 286.072 177.829 288.605C177.612 288.713 177.395 288.803 177.184 288.89C176.165 289.312 175.296 289.671 175.296 291.77C175.423 293.035 175.524 294.3 175.625 295.565C176.03 300.63 176.435 305.695 178.461 310.76C180.299 315.904 183.202 319.342 187.049 320.826V292.672H216.632V317.648C227.432 317.461 238.078 319.632 248.724 322.787C251.256 323.42 251.889 324.052 251.256 326.585C249.761 335.308 249.443 343.835 250.11 352.243H260.654V293.547ZM229.323 352.243C229.354 347.961 229.683 343.632 230.368 339.244C230.368 336.712 229.736 336.712 227.836 337.345C225.692 337.881 223.497 338.316 221.309 338.75C219.74 339.062 218.174 339.372 216.632 339.719V352.243H229.323ZM360.397 352.147C365.434 356.999 370.299 362.086 374.995 367.403L379.591 384.855H351.838L360.397 352.147ZM453.673 302.57C454.429 301.904 455.203 301.265 455.995 300.655C455.481 300.224 454.966 299.795 454.448 299.367C454.178 300.446 453.921 301.513 453.673 302.57ZM476.021 318.319C473.73 319.787 471.742 321.84 470.059 324.477C468.107 327.641 466.626 331.713 465.616 336.694C464.674 341.608 464.203 347.565 464.203 354.565V378.303C465.04 375.611 465.864 372.915 466.689 370.217L466.689 370.216L466.692 370.207C467.46 367.693 468.229 365.178 469.01 362.662L469.01 362.663C471.219 364.652 473.429 366.563 475.611 368.451L475.611 368.452L475.612 368.452L475.612 368.452C479.682 371.973 483.659 375.413 487.367 379.123C488.792 380.072 488.08 381.022 487.367 381.971C487.13 382.288 486.893 382.604 486.735 382.921C481.122 390.776 475.012 397.64 467.962 403.948C468.637 405.55 469.404 406.993 470.261 408.279C472.28 411.308 474.737 413.563 477.631 415.044C480.593 416.458 483.992 417.164 487.829 417.164C491.599 417.164 494.93 416.458 497.825 415.044C500.787 413.563 503.243 411.308 505.195 408.279C507.147 405.25 508.628 401.346 509.638 396.567C510.648 391.788 511.152 386.033 511.152 379.302V354.565C511.152 348.254 510.742 342.792 509.922 338.177C509.257 340.451 508.519 342.696 507.62 344.942C496.372 336.693 486.233 327.556 476.021 318.319ZM320.887 521.863C321.362 522.021 321.837 522.179 322.154 522.179L322.155 522.179C313.927 527.243 305.065 529.776 295.568 532.304C281.007 536.104 266.45 538.002 251.258 537.369C231.634 536.104 212.644 532.939 196.187 520.279C184.792 511.417 177.829 500.024 178.462 484.832C179.094 474.072 187.957 461.412 198.084 458.247C199.351 457.614 199.984 458.247 200.616 458.879C204.414 462.679 208.214 466.477 212.644 470.274C214.544 471.539 213.911 472.174 212.011 473.439C209.479 474.707 206.949 476.604 205.049 478.504C199.986 484.202 199.354 489.899 203.784 496.229C209.479 503.824 218.341 507.622 227.204 510.154C242.396 515.217 258.854 515.849 274.679 514.584C279.123 514.091 282.797 515.139 286.602 516.224L286.602 516.224L286.603 516.224C287.675 516.53 288.758 516.839 289.871 517.117C299.999 519.014 309.494 520.282 319.621 521.547C319.937 521.547 320.412 521.705 320.887 521.863ZM453.157 533.795C464.045 538.977 474.547 543.976 486.102 546.865C484.202 552.562 478.507 554.462 472.177 552.562C467.744 550.662 463.947 547.497 460.149 543.7C459.531 543.082 458.889 542.464 458.233 541.832C455.526 539.226 452.569 536.381 450.022 532.305C450.547 532.553 451.07 532.802 451.593 533.05C452.115 533.299 452.637 533.547 453.157 533.795ZM510.789 265.811C515.219 270.877 517.119 276.574 517.119 283.537L517.119 283.537C512.687 281.637 509.522 278.472 506.357 275.307C504.458 274.041 502.718 272.616 500.977 271.192C499.236 269.767 497.496 268.343 495.597 267.077C493.064 265.179 493.697 264.544 495.597 263.279C500.029 260.747 506.359 262.014 510.789 265.811ZM406.345 238.592C408.242 237.326 410.142 236.061 413.307 234.161C412.991 235.428 412.991 236.536 412.991 237.564C412.991 238.593 412.991 239.543 412.675 240.491C412.435 241.212 412.468 242.024 412.498 242.754C412.548 243.947 412.588 244.922 411.41 244.922C409.295 244.922 407.623 243.158 406.023 241.47C405.707 241.136 405.393 240.805 405.08 240.491C404.634 239.602 405.125 239.337 405.677 239.039C405.911 238.913 406.156 238.78 406.345 238.592Z" fill="url(#paint0_linear_42_2)"/>
<path fill-rule="evenodd" clip-rule="evenodd" d="M123.235 374.293H170.631V358.867H123.186L122.876 342.765C122.76 336.704 122.097 333.26 121.549 331.634C120.802 331.51 119.706 331.404 118.19 331.404C116.247 331.404 115.509 331.754 115.435 331.791L115.413 331.803C115.363 331.868 115.293 331.97 115.205 332.116C114.75 332.875 113.926 334.73 113.271 338.355C112.664 342.097 112.294 347.105 112.294 353.555V378.696C112.294 385.095 112.639 390.148 113.219 394.003C113.757 397.514 114.476 399.563 114.99 400.614C115.506 400.723 116.398 400.847 117.786 400.847C119.487 400.847 120.711 400.719 121.54 400.565C121.544 400.565 121.547 400.564 121.55 400.564C122.028 398.983 122.621 395.775 122.779 390.242L123.235 374.293ZM107.083 415.145C104.323 413.732 102.136 411.477 100.52 408.38C98.9049 405.284 97.7269 401.313 96.9865 396.466C96.2461 391.553 95.8759 385.629 95.8759 378.696V353.555C95.8759 346.488 96.2797 340.497 97.0875 335.583C97.9625 330.67 99.3087 326.698 101.126 323.669C102.944 320.64 105.266 318.453 108.093 317.106C110.92 315.693 114.285 314.986 118.19 314.986C123.44 314.986 127.546 315.828 130.507 317.51C133.469 319.126 135.623 321.953 136.969 325.992C138.383 329.963 139.157 335.449 139.292 342.449H168.875C168.441 336.481 167.55 331.008 166.202 326.031C165.042 321.746 163.543 317.829 161.706 314.279C157.802 306.539 152.249 300.649 145.047 296.61C137.844 292.571 128.892 290.552 118.19 290.552C110.179 290.552 102.977 291.932 96.5826 294.692C90.2554 297.384 84.8368 301.423 80.327 306.808C75.8844 312.125 72.4516 318.722 70.0284 326.597C67.6725 334.473 66.4945 343.526 66.4945 353.757V378.696C66.4945 388.927 67.6052 397.981 69.8264 405.856C72.115 413.664 75.4806 420.227 79.9231 425.545C84.3657 430.862 89.7505 434.901 96.0778 437.661C102.405 440.353 109.641 441.699 117.786 441.699C128.286 441.699 137.239 439.747 144.643 435.843C152.114 431.939 157.869 426.218 161.908 418.679C163.761 415.19 165.231 411.34 166.318 407.13C167.602 402.16 168.353 396.687 168.572 390.711H139.191C138.989 397.779 138.147 403.231 136.666 407.068C135.186 410.905 132.897 413.563 129.801 415.044C126.772 416.525 122.767 417.265 117.786 417.265C113.478 417.265 109.91 416.559 107.083 415.145ZM152.273 450.381C141.989 455.797 130.278 458.118 117.786 458.118C107.833 458.118 98.3482 456.47 89.6491 452.768L89.5813 452.739L89.5138 452.71C80.8417 448.927 73.3931 443.337 67.3233 436.071C61.2042 428.747 56.8849 420.075 54.0709 410.474L54.0473 410.394L54.0246 410.313C51.3071 400.678 50.0762 390.075 50.0762 378.696V353.757C50.0762 342.305 51.3905 331.614 54.2987 321.892L54.3172 321.83L54.336 321.769C57.2819 312.195 61.6469 303.559 67.7271 296.281L67.7335 296.274L67.7399 296.266C73.8673 288.95 81.3676 283.33 90.115 279.601C98.839 275.843 108.29 274.134 118.19 274.134C130.893 274.134 142.8 276.527 153.077 282.29C160.068 286.21 165.929 291.378 170.631 297.625V276.254H233.051V335.825H244.235V276.254H306.352V384.438L340.16 276.254H391.127L418.403 362.777V354.767C418.403 342.911 419.784 331.903 422.886 322.004C425.938 312.195 430.551 303.393 437.036 296.061C443.343 288.864 450.948 283.34 459.739 279.666C468.453 275.955 477.828 274.235 487.627 274.235C497.426 274.235 506.801 275.955 515.515 279.666C524.306 283.34 531.911 288.864 538.217 296.061C541.882 300.203 544.948 304.815 547.473 309.813C547.681 309.297 547.897 308.784 548.122 308.273L548.159 308.189L548.197 308.106C551.458 300.912 556.124 294.668 562.116 289.532C567.958 284.457 574.671 280.666 582.068 278.082L582.096 278.072L582.125 278.062C589.753 275.428 597.892 274.235 606.364 274.235C618.07 274.235 629.113 276.672 638.883 282.22C648.366 287.566 655.908 295.061 661.18 304.547C666.558 314.099 669.025 324.736 669.025 335.987V352.406H647.243C650.275 354.825 653.071 357.46 655.597 360.326C660.413 365.721 664.078 371.869 666.535 378.673C669.046 385.628 670.136 393.087 670.136 400.808C670.136 408.872 668.713 416.667 665.609 423.961C662.58 431.173 658.098 437.461 652.282 442.696L652.225 442.747L652.168 442.797C646.325 447.958 639.5 451.734 631.987 454.301C624.352 456.933 616.186 458.118 607.676 458.118C599.342 458.118 591.261 456.96 583.514 454.55L583.435 454.525L583.356 454.5C575.375 451.928 568.125 447.995 561.774 442.656L561.675 442.574L561.578 442.489C555.532 437.244 550.828 430.852 547.379 423.577C544.879 428.415 541.865 432.888 538.292 436.928C532 444.049 524.331 449.423 515.49 452.983C506.835 456.495 497.541 458.118 487.829 458.118C478.104 458.118 468.792 456.491 460.097 452.995L460.07 452.984L460.043 452.973C454.085 450.553 448.65 447.308 443.78 443.276L447.822 456.098H381.377L373.399 425.808H358.091L350.164 456.098H244.235V393.095H233.051V456.098H170.631V435.23C165.688 441.487 159.541 446.579 152.273 450.381ZM216.632 376.677H260.654V439.68H289.934V292.672H260.654V352.243H216.632V292.672H187.049V439.68H216.632V376.677ZM337.489 439.68L345.416 409.39H386.053L394.031 439.68H425.431L379.088 292.672H352.231L306.291 439.68H337.489ZM351.837 384.855H379.591L365.67 331.999L351.837 384.855ZM509.335 437.762C515.864 435.137 521.417 431.233 525.994 426.05C530.639 420.799 534.206 414.304 536.697 406.563C539.255 398.755 540.534 389.668 540.534 379.302V354.767C540.534 344.132 539.255 334.843 536.697 326.9C534.206 318.89 530.605 312.226 525.893 306.909C521.182 301.524 515.595 297.485 509.133 294.793C502.671 292.033 495.502 290.653 487.627 290.653C479.752 290.653 472.583 292.033 466.121 294.793C459.659 297.485 454.072 301.524 449.361 306.909C444.649 312.226 441.048 318.89 438.557 326.9C436.067 334.843 434.821 344.132 434.821 354.767V379.302C434.821 389.668 436.1 398.755 438.658 406.563C441.216 414.304 444.817 420.799 449.462 426.05C454.173 431.233 459.76 435.137 466.222 437.762C472.751 440.387 479.954 441.699 487.829 441.699C495.704 441.699 502.873 440.387 509.335 437.762ZM509.638 336.694C508.628 331.713 507.114 327.641 505.094 324.477C503.075 321.313 500.618 318.991 497.724 317.51C494.829 316.029 491.464 315.289 487.627 315.289C483.79 315.289 480.391 316.029 477.429 317.51C474.535 318.991 472.078 321.313 470.059 324.477C468.107 327.641 466.626 331.713 465.616 336.694C464.674 341.608 464.203 347.565 464.203 354.565V379.302C464.203 386.033 464.708 391.788 465.717 396.567C466.727 401.346 468.241 405.25 470.261 408.279C472.28 411.308 474.737 413.563 477.631 415.044C480.593 416.458 483.992 417.165 487.829 417.165C491.598 417.165 494.93 416.458 497.825 415.044C500.786 413.563 503.243 411.308 505.195 408.279C507.147 405.25 508.628 401.346 509.638 396.567C510.647 391.788 511.152 386.033 511.152 379.302V354.565C511.152 347.565 510.647 341.608 509.638 336.694ZM490.547 400.325C490.688 400.246 490.974 400.038 491.394 399.386C491.954 398.518 492.84 396.648 493.574 393.174C494.278 389.839 494.734 385.287 494.734 379.302V354.565C494.734 348.275 494.273 343.493 493.555 339.999L493.551 339.977L493.547 339.956C492.805 336.298 491.877 334.285 491.255 333.311C490.89 332.74 490.609 332.437 490.459 332.294C490.318 332.161 490.251 332.129 490.245 332.127C490.048 332.026 489.33 331.707 487.627 331.707C486.08 331.707 485.264 331.971 484.872 332.148C484.838 332.17 484.779 332.214 484.694 332.294C484.553 332.427 484.299 332.701 483.969 333.202C483.339 334.26 482.453 336.312 481.724 339.872C481.047 343.445 480.621 348.276 480.621 354.565V379.302C480.621 385.287 481.077 389.84 481.781 393.174C482.498 396.569 483.38 398.36 483.922 399.172C484.396 399.883 484.75 400.195 484.951 400.333C485.441 400.521 486.327 400.746 487.829 400.746C489.403 400.746 490.202 400.48 490.547 400.325ZM556.952 367.591V376.918H567.651C565.919 375.676 564.24 374.376 562.615 373.017C560.59 371.325 558.701 369.515 556.952 367.591ZM603.643 395.389C603.747 397.672 604.019 399.273 604.305 400.324C604.36 400.515 604.412 400.669 604.456 400.789C604.478 400.799 604.502 400.809 604.527 400.82C605.22 401.016 606.281 401.206 607.815 401.244C607.816 401.168 607.817 401.09 607.817 401.01C607.817 399.81 607.738 398.856 607.628 398.114C607.544 398.034 607.422 397.925 607.256 397.787C606.818 397.423 606.156 396.933 605.206 396.336L605.132 396.29L605.058 396.243C604.643 395.976 604.173 395.691 603.643 395.389ZM592.531 412.217C590.714 410.332 589.368 407.842 588.493 404.746C587.618 401.582 587.18 397.779 587.18 393.336H557.597C557.597 399.394 558.288 404.867 559.671 409.755C560.194 411.601 560.815 413.365 561.535 415.044C564.16 421.102 567.761 426.117 572.338 430.088C576.983 433.992 582.334 436.92 588.392 438.872C594.45 440.757 600.878 441.699 607.676 441.699C614.677 441.699 621.004 440.723 626.658 438.771C632.38 436.819 637.26 434.06 641.298 430.492C645.337 426.857 648.4 422.549 650.486 417.568C652.64 412.52 653.717 406.933 653.717 400.808C653.717 394.615 652.842 389.096 651.092 384.249C649.342 379.403 646.751 375.061 643.318 371.225C639.885 367.321 635.611 363.82 630.495 360.724C625.615 357.706 620.031 354.933 613.742 352.406C613.438 352.283 613.133 352.162 612.826 352.041C610.681 351.2 608.641 350.345 606.706 349.478C605.544 348.957 604.421 348.432 603.335 347.901C600.508 346.488 598.051 345.041 595.964 343.56C593.878 342.012 592.229 340.295 591.017 338.41C589.873 336.458 589.301 334.271 589.301 331.848C589.301 328.617 589.873 325.722 591.017 323.164C592.229 320.539 594.046 318.486 596.469 317.005C598.96 315.457 602.09 314.683 605.859 314.683C609.898 314.683 613.196 315.592 615.754 317.409C618.312 319.227 620.163 321.751 621.307 324.982C622.519 328.145 623.124 331.814 623.124 335.987H652.607C652.607 330.058 651.739 324.585 650.004 319.569C649.159 317.125 648.108 314.79 646.852 312.563C643.082 305.764 637.731 300.413 630.798 296.509C623.932 292.605 615.787 290.653 606.364 290.653C599.431 290.653 593.137 291.629 587.483 293.581C581.896 295.533 577.016 298.327 572.843 301.961C568.67 305.529 565.439 309.837 563.15 314.885C560.929 319.933 559.818 325.554 559.818 331.747C559.818 338.074 560.996 343.593 563.352 348.305C565.775 352.95 569.04 356.988 573.146 360.421C577.252 363.854 581.863 366.883 586.978 369.508C592.094 372.066 597.378 374.489 602.83 376.778C602.94 376.825 603.049 376.871 603.158 376.918C603.306 376.982 603.453 377.045 603.599 377.109C607.823 378.943 611.269 380.717 613.936 382.432C616.831 384.249 619.018 386.067 620.499 387.884C622.047 389.702 623.057 391.687 623.528 393.841C623.999 395.995 624.235 398.385 624.235 401.01C624.235 404.173 623.73 407.001 622.721 409.491C621.711 411.982 620.028 413.967 617.672 415.448C615.384 416.929 612.287 417.669 608.383 417.669C604.95 417.669 601.888 417.232 599.195 416.357C596.57 415.414 594.349 414.035 592.531 412.217Z" fill="url(#paint1_linear_42_2)"/>
<defs>
<linearGradient id="paint0_linear_42_2" x1="172.636" y1="597" x2="577.571" y2="553.282" gradientUnits="userSpaceOnUse">
<stop stop-color="#BD8BFF"/>
<stop offset="0.850746" stop-color="#773AB7"/>
</linearGradient>
<linearGradient id="paint1_linear_42_2" x1="130" y1="443.115" x2="544.457" y2="290.929" gradientUnits="userSpaceOnUse">
<stop stop-color="#BD8BFF"/>
<stop offset="0.850746" stop-color="#773AB7"/>
</linearGradient>
</defs>
</svg>
